<?xml version="1.0" encoding="utf-8"?>
<!-- Generator: Adobe Illustrator 27.0.0, SVG Export Plug-In . SVG Version: 6.00 Build 0)  -->
<svg version="1.1" id="Lag_1" xmlns="http://www.w3.org/2000/svg" xmlns:xlink="http://www.w3.org/1999/xlink" x="0px" y="0px"
	 viewBox="0 0 110.28 113.19" style="enable-background:new 0 0 110.28 113.19;" xml:space="preserve">
<style type="text/css">
	.st0{fill:#FFFFFF;stroke:#000000;stroke-miterlimit:10;}
	.st1{fill:none;}
	.st2{font-family:'AvenirNext-Regular';}
	.st3{font-size:18px;}
	.st4{font-family:'AvenirNextCondensed-Regular';}
	.st5{font-size:9px;}
	.st6{stroke:#000000;stroke-miterlimit:10;}
</style>
<polyline class="st0" points="77.1,14.15 3.76,14.15 3.76,108.97 98.58,108.97 98.58,60.56 "/>
<path class="st0" d="M98.49,58.89c0.38-7.54-0.43-18.69-6.64-31.09c-2.88-5.75-6.35-10.6-9.69-14.55"/>
<rect x="11.76" y="51.91" class="st1" width="83.69" height="19.28"/>
<text transform="matrix(1 0 0 1 11.7591 65.5227)" class="st2 st3">MEDOVA</text>
<rect x="28.92" y="72.31" class="st1" width="44.5" height="8.07"/>
<text transform="matrix(1 0 0 1 30.2942 79.1128)" class="st4 st5">SINCE 1945</text>
<path class="st6" d="M71.42,7.31"/>
<path class="st6" d="M78.94,10.97c-0.44-0.76-0.63-1.44-1-2.79c-0.48-1.74-0.98-3.53-0.47-3.88c0.35-0.24,1.4,0.7,3.51,2.55
	c1.2,1.05,1.99,1.83,2.66,3.04c0.63,1.13,0.69,1.79,0.62,2.32c0,0.01,0,0.02-0.01,0.04c-0.12,0.83-0.63,1.54-0.95,1.75
	C82.39,14.62,80.12,13.03,78.94,10.97z"/>
<path class="st6" d="M88.07,33.32c-0.79-0.41-1.32-0.89-2.37-1.84c-1.36-1.22-2.76-2.48-2.53-3.06c0.16-0.4,1.56-0.18,4.35,0.24
	c1.59,0.24,2.68,0.47,3.91,1.13c1.16,0.62,1.57,1.15,1.8,1.64c0,0.01,0.01,0.02,0.02,0.04c0.36,0.78,0.32,1.67,0.17,2.03
	C92.99,34.53,90.2,34.43,88.07,33.32z"/>
<path class="st6" d="M91.89,47.09c-0.75-0.47-1.24-0.99-2.22-2.02c-1.26-1.33-2.56-2.69-2.28-3.25c0.19-0.39,1.57-0.06,4.32,0.58
	c1.56,0.36,2.63,0.67,3.81,1.43c1.1,0.71,1.47,1.27,1.66,1.78c0,0.01,0.01,0.02,0.01,0.04c0.29,0.8,0.19,1.69,0.01,2.04
	C96.69,48.67,93.92,48.36,91.89,47.09z"/>
<path class="st6" d="M89.23,16.66c0.41-0.79,0.89-1.31,1.84-2.37c1.23-1.36,2.49-2.75,3.07-2.52c0.4,0.16,0.17,1.56-0.25,4.35
	c-0.24,1.59-0.47,2.68-1.14,3.91c-0.62,1.16-1.16,1.56-1.65,1.79c-0.01,0-0.02,0.01-0.04,0.02c-0.78,0.35-1.67,0.32-2.03,0.16
	C88.01,21.57,88.12,18.79,89.23,16.66z"/>
<path class="st6" d="M95.5,29.18c0.45-0.76,0.95-1.27,1.96-2.27c1.29-1.29,2.62-2.62,3.19-2.36c0.39,0.18,0.1,1.57-0.47,4.34
	c-0.32,1.57-0.61,2.65-1.33,3.85c-0.68,1.12-1.23,1.5-1.74,1.71c-0.01,0-0.02,0.01-0.04,0.02c-0.79,0.31-1.69,0.23-2.04,0.06
	C94.04,34.02,94.28,31.24,95.5,29.18z"/>
<path class="st6" d="M100.75,48.16c0.64-0.62,1.26-0.97,2.49-1.67c1.59-0.9,3.23-1.83,3.7-1.43c0.33,0.28-0.33,1.53-1.61,4.05
	c-0.73,1.43-1.29,2.39-2.31,3.35c-0.96,0.9-1.59,1.12-2.13,1.18c-0.01,0-0.02,0-0.04,0c-0.85,0.09-1.69-0.23-1.98-0.48
	C98.05,52.43,99.02,49.82,100.75,48.16z"/>
</svg>
